<svg width="406.54901964656966" height="304.125" viewBox="0 0 378 282.7684841054074" class="css-1j8o68f"><defs id="SvgjsDefs1034"></defs><g id="SvgjsG1035" featurekey="DMynUx-0" transform="matrix(1.4000000000000001,0,0,1.4000000000000001,117.98919999599457,-1.0121999859809876)" fill="#a12559"><rect xmlns="http://www.w3.org/2000/svg" xmlns:serif="http://www.serif.com/" serif:id="Page 29" x="0.722" y="0.723" width="100" height="100" style="" fill="none"></rect><path xmlns="http://www.w3.org/2000/svg" d="M18.079,33.84c-0.24,-0.898 -0.926,-1.608 -1.814,-1.88c-0.602,-0.165 -1.187,-0.419 -1.75,-0.743c-4.098,-2.367 -5.505,-7.616 -3.138,-11.715c2.366,-4.099 7.615,-5.505 11.714,-3.139c4.099,2.367 5.505,7.616 3.139,11.715c-0.325,0.562 -0.704,1.074 -1.128,1.533c-0.628,0.674 -0.865,1.625 -0.626,2.515c-0.021,0.006 -0.021,0.006 -0.021,0.007c0.274,1.02 1.061,2.031 2.001,2.932c1.765,1.688 3.853,3.003 6.138,3.867c0.683,0.26 1.49,0.565 2.184,0.828c1.857,0.7 3.795,1.167 5.767,1.388c2.451,0.241 5.415,0.273 7.228,-0.774c0.478,-0.276 0.963,-0.556 1.448,-0.836c4.087,-2.36 6.693,-6.637 6.917,-11.351c0.262,-5.902 3.445,-11.546 8.937,-14.717c8.579,-4.953 19.565,-2.009 24.518,6.57c4.953,8.579 2.009,19.565 -6.57,24.518c-5.492,3.171 -11.97,3.105 -17.221,0.397c-4.189,-2.161 -9.19,-2.043 -13.272,0.314c-1.463,0.824 -2.922,1.667 -4.196,2.402c-2.16,1.248 -3.369,3.664 -3.074,6.141c0.02,0.167 0.037,0.334 0.053,0.501c0.52,5.403 3.619,10.222 8.32,12.936c-0.005,0.01 -0.004,0.011 -0.003,0.011c3.499,2.02 7.657,2.566 11.559,1.518c2.715,-0.742 5.711,-0.434 8.338,1.083c5.256,3.034 7.06,9.766 4.025,15.022c-3.035,5.256 -9.766,7.06 -15.022,4.025c-2.616,-1.511 -4.377,-3.937 -5.112,-6.642c-1.066,-3.932 -3.645,-7.283 -7.174,-9.321c0.006,-0.014 0.005,-0.015 0.004,-0.016c-4.67,-2.695 -10.357,-2.96 -15.256,-0.709c-5.125,2.389 -11.296,2.32 -16.56,-0.72c-8.59,-4.959 -11.537,-15.959 -6.578,-24.548c0.985,-1.707 2.209,-3.191 3.605,-4.434c2.439,-2.165 3.447,-5.522 2.603,-8.672c0.018,-0.005 0.018,-0.006 0.017,-0.006Z"></path></g><g id="SvgjsG1036" featurekey="xgcenu-0" transform="matrix(5.301375682213295,0,0,5.301375682213295,-4.06313062802856,126.39648944432811)" fill="#5f1854"><path d="M0.86441 17.6442 l0.96576 -1.1188 c0.20339 -0.23746 0.45763 -0.23746 0.64407 -0.10186 c0.55932 0.47458 1.5593 1.3729 2.8136 1.3729 c1.2203 0 2.2712 -0.4578 2.2712 -1.5086 c0 -1.1017 -1.1356 -1.4237 -2.3051 -1.8983 c-2.4237 -1 -4.1864 -2.0339 -4.1864 -4.2373 c0 -1.7288 1.2712 -3.8136 4.339 -3.8136 c2.0847 0 3.5934 1.1866 4.0341 1.6273 c0.18644 0.18644 0.28814 0.42373 0.11864 0.62712 l-0.84746 1.1186 c-0.16966 0.22034 -0.40678 0.32203 -0.67797 0.13559 c-0.54237 -0.42373 -1.4237 -1.2034 -2.6102 -1.2034 c-1.2034 0 -1.9492 0.69492 -1.9492 1.5085 c0 0.89831 0.77966 1.339 2.0508 1.8475 c2.2203 0.93254 4.4407 1.9325 4.4407 4.3224 c0 1.9831 -1.9659 3.7964 -4.6439 3.7964 c-2.4237 0 -3.9322 -1.5422 -4.3559 -1.949 c-0.15254 -0.13559 -0.30508 -0.32203 -0.10169 -0.52542 z M17.05066779661017 19.42373 c0.033898 0.13559 -0.050681 0.23763 -0.16933 0.33932 c-0.27119 0.20339 -0.9322 0.32186 -1.5424 0.32186 c-1.8644 0 -2.7288 -0.84729 -2.7288 -3.1185 l0 -3.1017 l-0.96594 0 c-0.16966 0 -0.3222 -0.13559 -0.3222 -0.3222 l0 -0.33898 c0 -0.16949 0.033898 -0.28814 0.13559 -0.40678 c0.94915 -1.0678 1.9831 -2.1866 2.8814 -3.6273 c0.084746 -0.13559 0.15254 -0.20339 0.23729 -0.20339 l0.16949 0 c0.15254 0 0.22034 0.084746 0.22034 0.25424 l0 2.3898 l1.5085 0 c0.18644 0 0.35593 0.15254 0.35593 0.33898 l0 1.5764 c0 0.18644 -0.16949 0.33898 -0.35593 0.33898 l-1.2034 0 c-0.13559 0 -0.25424 -0.016949 -0.32203 -0.050847 l0 2.9831 c0 0.69475 0.16933 1.0846 0.83034 1.0846 c0.22034 0 0.42373 -0.033898 0.59322 -0.067797 c0.22034 -0.050847 0.35593 0.084746 0.40678 0.30508 z M26.76257966101695 11.6102 c0.23729 0 0.37271 0.16966 0.25407 0.38983 l-3.2542 6.678 c-1.7797 3.6947 -3.2034 5.7456 -3.8983 6.3897 c-0.20339 0.15254 -0.42373 0.084746 -0.64407 -0.13559 l-0.9322 -0.9322 c-0.22034 -0.22034 -0.18644 -0.42373 0.016949 -0.67797 c0.98305 -1.1017 2.1525 -2.8475 3.0339 -4.8305 l-3.4576 -6.4915 c-0.10153 -0.22017 0 -0.38966 0.23746 -0.38966 l1.8644 0 c0.20339 0 0.30508 0.084746 0.38983 0.23729 l2.1525 4.3898 l2.0168 -4.3898 c0.084746 -0.15254 0.20339 -0.23729 0.39 -0.23729 l1.8305 0 z M30.779525423728817 6.441000000000001 l-1.6949 -0.00016552 c-0.18661 0 -0.3222 0.15254 -0.3222 0.32203 l0 12.373 c0 0.49153 0.30525 0.86441 0.83068 0.86441 l1.1864 0 c0.18644 0 0.32203 -0.13543 0.32203 -0.33881 l0 -12.898 c0 -0.16949 -0.15254 -0.32203 -0.32203 -0.32203 z M34.72883559322034 8.966 c-0.69492 0 -1.2542 -0.55932 -1.2542 -1.2542 s0.55932 -1.2712 1.2542 -1.2712 c0.69475 0 1.271 0.57627 1.271 1.2712 s-0.57627 1.2542 -1.271 1.2542 z M35.59323559322034 11.6103 l-1.6951 0 c-0.18644 0 -0.32203 0.15254 -0.32203 0.32203 l0 7.2032 c0 0.49153 0.30508 0.86441 0.83051 0.86441 l1.2034 0 c0.16949 0 0.30508 -0.13543 0.30508 -0.33881 l0 -7.7288 c0 -0.16949 -0.15254 -0.32203 -0.32186 -0.32203 z M41.559340677966105 17.6612 l3.0844 -0.00033103 c0.20339 0 0.33898 0.11864 0.33898 0.32203 l0 1.6949 c0 0.20339 -0.15254 0.32203 -0.35593 0.32203 l-6.0341 0 c-0.47441 0 -0.69475 -0.55915 -0.49136 -0.86424 l0.27119 -0.44068 l2.9831 -4.7458 l-2.9322 0 c-0.22034 0 -0.33898 -0.11864 -0.33898 -0.32203 l0 -1.6947 c0 -0.20339 0.11864 -0.3222 0.33898 -0.3222 l6.0339 0 c0.37305 0 0.59339 0.47458 0.4239 0.76271 l-0.22034 0.37288 z M53.47460847457628 16.5934 c0.74576 0 1.2375 -0.40695 1.2375 -1.2205 c0 -1.9831 -1.5593 -3.8814 -4.0678 -3.8814 c-2.3729 0 -4.2203 1.8475 -4.2203 4.3051 c0 2.5763 1.949 4.288 4.3219 4.288 c1.5085 0 2.7119 -0.52542 3.4068 -1.5085 c0.11864 -0.15254 0.084746 -0.27119 -0.050847 -0.44068 l-0.38983 -0.5422 c-0.16949 -0.22034 -0.32203 -0.18644 -0.52542 -0.084746 c-0.45763 0.25424 -1.339 0.52542 -2.1695 0.52542 c-1.0169 0 -1.9322 -0.49153 -2.1356 -1.4405 l4.5932 0 z M48.898308474576275 14.7966 c0.084746 -0.54237 0.72881 -1.1695 1.6949 -1.1695 c0.98305 0 1.5932 0.61017 1.678 1.1695 l-3.3729 0 z M58.677833898305096 6.441000000000001 l-1.6778 0 c-0.18644 0 -0.32203 0.15254 -0.32203 0.32203 l0 12.898 c0 0.18644 0.15254 0.33881 0.33898 0.33881 l1.678 0 c0.16933 0 0.32186 -0.16933 0.32186 -0.33881 l0 -12.898 c0 -0.16949 -0.16949 -0.32203 -0.33898 -0.32203 z M66.77948135593222 19.42373 c0.033898 0.13559 -0.050681 0.23763 -0.16933 0.33932 c-0.27119 0.20339 -0.9322 0.32186 -1.5424 0.32186 c-1.8644 0 -2.7288 -0.84729 -2.7288 -3.1185 l0 -3.1017 l-0.96594 0 c-0.16966 0 -0.3222 -0.13559 -0.3222 -0.3222 l0 -0.33898 c0 -0.16949 0.033898 -0.28814 0.13559 -0.40678 c0.94915 -1.0678 1.9831 -2.1866 2.8814 -3.6273 c0.084746 -0.13559 0.15254 -0.20339 0.23729 -0.20339 l0.16949 0 c0.15254 0 0.22034 0.084746 0.22034 0.25424 l0 2.3898 l1.5085 0 c0.18644 0 0.35593 0.15254 0.35593 0.33898 l0 1.5764 c0 0.18644 -0.16949 0.33898 -0.35593 0.33898 l-1.2034 0 c-0.13559 0 -0.25424 -0.016949 -0.32203 -0.050847 l0 2.9831 c0 0.69475 0.16933 1.0846 0.83034 1.0846 c0.22034 0 0.42373 -0.033898 0.59322 -0.067797 c0.22034 -0.050847 0.35593 0.084746 0.40678 0.30508 z"></path></g><g id="SvgjsG1037" featurekey="jZLKOX-0" transform="matrix(0.7787386554092465,0,0,0.7787386554092465,-0.6083895281220328,266.9123530988901)" fill="#a12559"><path d="M0.78125 20 l0 -4.7266 l0 -5.5078 l0 -5.5078 l3.1543 0 l2.3535 0 c1.5137 0 2.8125 0.53711 3.8965 1.6211 s1.6211 2.3828 1.6211 3.8965 s-0.53711 2.8125 -1.6211 3.8867 s-2.3828 1.6113 -3.8965 1.6113 l-2.3535 0 l0 4.7266 l-3.1543 0 z M3.9355 12.1289 l2.3535 0.0097656 c0.6543 0 1.2109 -0.23438 1.6699 -0.69336 s0.69336 -1.0156 0.69336 -1.6699 c0 -0.64453 -0.23438 -1.2012 -0.69336 -1.6699 s-1.0156 -0.70313 -1.6699 -0.70313 l-2.3535 0 l0 2.3633 l0 2.3633 z M17.40234375 20 l0 -15.742 l3.1543 0 l0 15.742 l-3.1543 0 z M33.90620625 4.18 l-0.0097656 0.039063 c1.0938 0 2.1191 0.20508 3.0859 0.625 s1.8164 0.98633 2.5488 1.6992 l-2.2461 2.2461 c-0.94727 -0.9375 -2.0703 -1.4063 -3.3691 -1.4063 c-1.3184 0 -2.4414 0.46875 -3.3691 1.4063 s-1.3965 2.0605 -1.3965 3.3691 c0 1.3184 0.46875 2.4414 1.3965 3.3691 s2.0508 1.3965 3.3691 1.3965 s2.4414 -0.46875 3.3789 -1.4063 l2.2461 2.2461 c-0.73242 0.72266 -1.582 1.2891 -2.5488 1.709 s-1.9922 0.625 -3.0859 0.625 c-2.1875 0 -4.0625 -0.78125 -5.6152 -2.334 s-2.334 -3.4277 -2.334 -5.6152 s0.78125 -4.0625 2.334 -5.625 s3.4277 -2.3438 5.6152 -2.3438 z M48.671890625 4.257999999999999 l3.1543 0 l3.9355 0 l0 3.1445 l-3.9355 0 l0 12.598 l-3.1543 0 l0 -12.598 l-3.9355 0 l0 -3.1445 l3.9355 0 z M70.840171875 4.257999999999999 l3.1738 0 l0 6.3281 l0 3.1641 c0 1.748 -0.61523 3.2422 -1.8555 4.4824 s-2.7344 1.8555 -4.4727 1.8555 c-1.748 0 -3.2422 -0.61523 -4.4824 -1.8555 s-1.8555 -2.7344 -1.8555 -4.4824 l0 -3.1641 l0 -6.3281 l3.1738 0 l0 6.3281 l0 2.832 l0 0.32227 c0 0.86914 0.3125 1.6113 0.92773 2.2266 s1.3574 0.92773 2.2266 0.92773 c0.85938 0 1.6016 -0.3125 2.2266 -0.92773 s0.9375 -1.3574 0.9375 -2.2266 l0 -0.32227 l0 -2.832 l0 -6.3281 z M79.794921875 20 l-0.0097656 -15.762 l5.1172 0 c1.5137 0 3.0078 0.52734 4.0918 1.6113 s1.5234 2.0996 1.5234 3.6133 l0 0.48828 c0 1.1719 -0.33203 2.0313 -0.99609 2.9688 s-1.2207 1.2109 -2.2559 1.6016 l3.5547 5.4785 l-3.8477 0 l-4.0234 -6.1523 l0 6.1523 l-3.1543 0 z M82.939471875 11.8164 l2.2559 0.0097656 c0.6543 0 0.98633 -0.16602 1.4453 -0.625 s0.625 -0.98633 0.625 -1.6406 c0 -0.64453 -0.16602 -1.0742 -0.625 -1.543 s-1.2793 -0.63477 -1.9336 -0.63477 l-1.7676 0 l0 4.4336 z M96.513671875 4.257999999999999 l9.4434 0 l0 3.1445 l-6.2891 0 l0 3.1543 l4.7168 0 l0 3.1445 l-4.7168 0 l0 3.1445 l6.2891 0 l0 3.1543 l-6.2891 0 l-3.1543 0 l0 -15.742 z M116.328140625 16.8945 l-0.0097656 -0.019531 c0.86914 0 1.5918 -0.72266 1.5918 -1.5918 c0 -0.67383 -0.26367 -1.1035 -0.80078 -1.2988 c-1.1328 -0.41992 -0.85938 -0.32227 -1.9629 -0.70313 c-1.1621 -0.40039 -2.2363 -1.1914 -2.959 -2.1777 c-0.42969 -0.58594 -0.64453 -1.3086 -0.64453 -2.1777 c0 -1.3086 0.46875 -2.4316 1.4063 -3.3691 s2.0605 -1.4063 3.3789 -1.4063 c1.3086 0 2.4316 0.46875 3.3691 1.4063 s1.4063 2.0605 1.4063 3.3691 l-3.1738 0 c0 -0.85938 -0.72266 -1.582 -1.582 -1.582 c-0.86914 0 -1.5918 0.72266 -1.5918 1.5918 c0 0.56641 0.22461 0.99609 0.68359 1.2891 c0.9375 0.60547 0.83008 0.48828 1.9531 0.82031 c1.2109 0.35156 2.3047 1.1035 3.0566 2.0703 c0.43945 0.56641 0.66406 1.2988 0.66406 2.1875 c0 1.3184 -0.46875 2.4414 -1.4063 3.3789 s-2.0605 1.4063 -3.3691 1.4063 c-1.3184 0 -2.4414 -0.46875 -3.3789 -1.4063 s-1.4063 -2.0605 -1.4063 -3.3789 l3.1836 0 c0 0.87891 0.71289 1.5918 1.5918 1.5918 z M136.48438 4.257999999999999 l3.3887 0 l2.9004 7.4219 l2.9004 -7.4219 l2.9004 7.4219 l2.8906 -7.4219 l3.3984 0 l-6.2891 16.035 l-2.9297 -7.8027 l-2.8711 7.8027 z M160.263671875 20 l0 -15.742 l3.1543 0 l0 15.742 l-3.1543 0 z M172.949234375 4.257999999999999 l3.1543 0 l3.9355 0 l0 3.1445 l-3.9355 0 l0 12.598 l-3.1543 0 l0 -12.598 l-3.9355 0 l0 -3.1445 l3.9355 0 z M185.634765625 4.257999999999999 l3.1543 0 l0 6.2988 l4.7168 0 l0 -6.2988 l3.1543 0 l0 15.742 l-3.1543 0 l0 -6.2988 l-4.7168 0 l0 6.2988 l-3.1543 0 l0 -15.742 z M217.8906125 14.7949 l2.7832 0 l-1.3867 -3.2715 z M216.6016125 17.5781 l-0.019531 -0.0097656 c-0.35156 0.80078 -0.71289 1.5918 -1.0742 2.3926 l-3.3887 0 l7.1387 -15.996 l7.1582 15.996 l-3.3984 0 c-0.35156 -0.79102 -0.70313 -1.5918 -1.0547 -2.3828 l-5.3613 0 z M246.61134375 16.8945 l-0.0097656 -0.019531 c0.86914 0 1.5918 -0.72266 1.5918 -1.5918 c0 -0.67383 -0.26367 -1.1035 -0.80078 -1.2988 c-1.1328 -0.41992 -0.85938 -0.32227 -1.9629 -0.70313 c-1.1621 -0.40039 -2.2363 -1.1914 -2.959 -2.1777 c-0.42969 -0.58594 -0.64453 -1.3086 -0.64453 -2.1777 c0 -1.3086 0.46875 -2.4316 1.4063 -3.3691 s2.0605 -1.4063 3.3789 -1.4063 c1.3086 0 2.4316 0.46875 3.3691 1.4063 s1.4063 2.0605 1.4063 3.3691 l-3.1738 0 c0 -0.85938 -0.72266 -1.582 -1.582 -1.582 c-0.86914 0 -1.5918 0.72266 -1.5918 1.5918 c0 0.56641 0.22461 0.99609 0.68359 1.2891 c0.9375 0.60547 0.83008 0.48828 1.9531 0.82031 c1.2109 0.35156 2.3047 1.1035 3.0566 2.0703 c0.43945 0.56641 0.66406 1.2988 0.66406 2.1875 c0 1.3184 -0.46875 2.4414 -1.4063 3.3789 s-2.0605 1.4063 -3.3691 1.4063 c-1.3184 0 -2.4414 -0.46875 -3.3789 -1.4063 s-1.4063 -2.0605 -1.4063 -3.3789 l3.1836 0 c0 0.87891 0.71289 1.5918 1.5918 1.5918 z M257.0703125 20 l0 -4.7266 l0 -5.5078 l0 -5.5078 l3.1543 0 l2.3535 0 c1.5137 0 2.8125 0.53711 3.8965 1.6211 s1.6211 2.3828 1.6211 3.8965 s-0.53711 2.8125 -1.6211 3.8867 s-2.3828 1.6113 -3.8965 1.6113 l-2.3535 0 l0 4.7266 l-3.1543 0 z M260.2245625 12.1289 l2.3535 0.0097656 c0.6543 0 1.2109 -0.23438 1.6699 -0.69336 s0.69336 -1.0156 0.69336 -1.6699 c0 -0.64453 -0.23438 -1.2012 -0.69336 -1.6699 s-1.0156 -0.70313 -1.6699 -0.70313 l-2.3535 0 l0 2.3633 l0 2.3633 z M273.69140625 4.257999999999999 l3.1543 0 l0 12.588 l6.2891 0 l0 3.1543 l-9.4434 0 l0 -15.742 z M293.88670625 14.7949 l2.7832 0 l-1.3867 -3.2715 z M292.59770625 17.5781 l-0.019531 -0.0097656 c-0.35156 0.80078 -0.71289 1.5918 -1.0742 2.3926 l-3.3887 0 l7.1387 -15.996 l7.1582 15.996 l-3.3984 0 c-0.35156 -0.79102 -0.70313 -1.5918 -1.0547 -2.3828 l-5.3613 0 z M311.718765625 16.8945 l-0.0097656 -0.019531 c0.86914 0 1.5918 -0.72266 1.5918 -1.5918 c0 -0.67383 -0.26367 -1.1035 -0.80078 -1.2988 c-1.1328 -0.41992 -0.85938 -0.32227 -1.9629 -0.70313 c-1.1621 -0.40039 -2.2363 -1.1914 -2.959 -2.1777 c-0.42969 -0.58594 -0.64453 -1.3086 -0.64453 -2.1777 c0 -1.3086 0.46875 -2.4316 1.4063 -3.3691 s2.0605 -1.4063 3.3789 -1.4063 c1.3086 0 2.4316 0.46875 3.3691 1.4063 s1.4063 2.0605 1.4063 3.3691 l-3.1738 0 c0 -0.85938 -0.72266 -1.582 -1.582 -1.582 c-0.86914 0 -1.5918 0.72266 -1.5918 1.5918 c0 0.56641 0.22461 0.99609 0.68359 1.2891 c0.9375 0.60547 0.83008 0.48828 1.9531 0.82031 c1.2109 0.35156 2.3047 1.1035 3.0566 2.0703 c0.43945 0.56641 0.66406 1.2988 0.66406 2.1875 c0 1.3184 -0.46875 2.4414 -1.4063 3.3789 s-2.0605 1.4063 -3.3691 1.4063 c-1.3184 0 -2.4414 -0.46875 -3.3789 -1.4063 s-1.4063 -2.0605 -1.4063 -3.3789 l3.1836 0 c0 0.87891 0.71289 1.5918 1.5918 1.5918 z M322.177734375 4.257999999999999 l3.1543 0 l0 6.2988 l4.7168 0 l0 -6.2988 l3.1543 0 l0 15.742 l-3.1543 0 l0 -6.2988 l-4.7168 0 l0 6.2988 l-3.1543 0 l0 -15.742 z M356.64058125 4.18 c2.1875 0 4.0625 0.78125 5.625 2.3438 s2.3438 3.4375 2.3438 5.625 s-0.78125 4.0625 -2.3438 5.6152 s-3.4375 2.334 -5.625 2.334 s-4.0625 -0.78125 -5.6152 -2.334 s-2.334 -3.4277 -2.334 -5.6152 s0.78125 -4.0625 2.334 -5.625 s3.4277 -2.3438 5.6152 -2.3438 z M356.64058125 7.353999999999999 c-1.3184 0 -2.4414 0.46875 -3.3691 1.4063 s-1.3965 2.0605 -1.3965 3.3691 c0 1.3184 0.46875 2.4414 1.3965 3.3691 s2.0508 1.3965 3.3691 1.3965 c1.3086 0 2.4316 -0.46875 3.3691 -1.3965 s1.4063 -2.0508 1.4063 -3.3691 c0 -1.3086 -0.46875 -2.4316 -1.4063 -3.3691 s-2.0605 -1.4063 -3.3691 -1.4063 z M369.990234375 4.257999999999999 l9.4434 0 l0 3.1445 l-6.2891 0 l0 3.1543 l4.7168 0 l0 3.1445 l-4.7168 0 l0 3.1445 l0 3.1543 l-3.1543 0 l0 -6.2988 l0 -3.1445 l0 -6.2988 z M394.921875 3.965 l7.6758 10.527 l7.6758 -10.527 l0 16.035 l-3.1543 0 l0 -6.4941 l-4.5215 6.2402 l-4.5215 -6.2402 l0 6.4941 l-3.1543 0 l0 -16.035 z M421.416003125 14.7949 l2.7832 0 l-1.3867 -3.2715 z M420.127003125 17.5781 l-0.019531 -0.0097656 c-0.35156 0.80078 -0.71289 1.5918 -1.0742 2.3926 l-3.3887 0 l7.1387 -15.996 l7.1582 15.996 l-3.3984 0 c-0.35156 -0.79102 -0.70313 -1.5918 -1.0547 -2.3828 l-5.3613 0 z M441.474565625 4.18 l0.0097656 0.029297 c1.0938 0 2.1191 0.20508 3.0859 0.625 s1.8164 0.98633 2.5488 1.6992 l-2.2461 2.2461 c-0.94727 -0.9375 -2.0703 -1.4063 -3.3691 -1.4063 c-1.3184 0 -2.4414 0.46875 -3.3691 1.4063 s-1.3965 2.0605 -1.3965 3.3691 c0 1.3184 0.46875 2.4414 1.3965 3.3691 s2.0508 1.3965 3.3691 1.3965 c1.0352 0 1.9629 -0.29297 2.7734 -0.88867 s1.3867 -1.3574 1.7188 -2.2852 l-4.502 0 l0 -3.1738 l4.502 0 l1.8457 0 l1.4453 0 c0.10742 0.49805 0.15625 1.0254 0.15625 1.582 c0 2.1875 -0.78125 4.0625 -2.3438 5.6152 s-3.4375 2.334 -5.625 2.334 s-4.0625 -0.78125 -5.6152 -2.334 s-2.334 -3.4277 -2.334 -5.6152 s0.78125 -4.0625 2.334 -5.625 s3.4277 -2.3438 5.6152 -2.3438 z M454.82421875 20 l0 -15.742 l3.1543 0 l0 15.742 l-3.1543 0 z M471.32808125 4.18 l-0.0097656 0.039063 c1.0938 0 2.1191 0.20508 3.0859 0.625 s1.8164 0.98633 2.5488 1.6992 l-2.2461 2.2461 c-0.94727 -0.9375 -2.0703 -1.4063 -3.3691 -1.4063 c-1.3184 0 -2.4414 0.46875 -3.3691 1.4063 s-1.3965 2.0605 -1.3965 3.3691 c0 1.3184 0.46875 2.4414 1.3965 3.3691 s2.0508 1.3965 3.3691 1.3965 s2.4414 -0.46875 3.3789 -1.4063 l2.2461 2.2461 c-0.73242 0.72266 -1.582 1.2891 -2.5488 1.709 s-1.9922 0.625 -3.0859 0.625 c-2.1875 0 -4.0625 -0.78125 -5.6152 -2.334 s-2.334 -3.4277 -2.334 -5.6152 s0.78125 -4.0625 2.334 -5.625 s3.4277 -2.3438 5.6152 -2.3438 z M482.158205625 18.3496 c0 -1.1133 0.89844 -2.0117 2.0117 -2.0117 s2.0117 0.89844 2.0117 2.0117 s-0.89844 2.0117 -2.0117 2.0117 s-2.0117 -0.89844 -2.0117 -2.0117 z"></path></g></svg>